<svg viewBox="0 0 976 976" width="976" height="976" x="0" y="0" xmlns="http://www.w3.org/2000/svg"><defs><pattern id="pattern" x="0" y="0" width="8" height="8" patternUnits="userSpaceOnUse"><polygon points="0,4 0,8 8,0 4,0" fill="#ffffff"></polygon><polygon points="4,8 8,8 8,4" fill="#ffffff"></polygon></pattern><mask id="grating" x="0" y="0" width="1" height="1"><rect x="0" y="0" width="100%" height="100%" fill="url(#pattern)"></rect></mask></defs><g id="horizStripes"><rect fill="#E8C000" height="48" width="100%" x="0" y="0"></rect><rect fill="#101010" height="16" width="100%" x="0" y="48"></rect><rect fill="#2C2C80" height="288" width="100%" x="0" y="64"></rect><rect fill="#E0E0E0" height="24" width="100%" x="0" y="352"></rect><rect fill="#C80000" height="16" width="100%" x="0" y="376"></rect><rect fill="#289C18" height="24" width="100%" x="0" y="392"></rect><rect fill="#101010" height="24" width="100%" x="0" y="416"></rect><rect fill="#888888" height="144" width="100%" x="0" y="440"></rect><rect fill="#101010" height="24" width="100%" x="0" y="584"></rect><rect fill="#289C18" height="24" width="100%" x="0" y="608"></rect><rect fill="#C80000" height="16" width="100%" x="0" y="632"></rect><rect fill="#E0E0E0" height="24" width="100%" x="0" y="648"></rect><rect fill="#2C2C80" height="288" width="100%" x="0" y="672"></rect><rect fill="#101010" height="16" width="100%" x="0" y="960"></rect></g><g id="vertStripes" mask="url(#grating)"><rect fill="#E8C000" height="100%" width="48" x="0" y="0"></rect><rect fill="#101010" height="100%" width="16" x="48" y="0"></rect><rect fill="#2C2C80" height="100%" width="288" x="64" y="0"></rect><rect fill="#E0E0E0" height="100%" width="24" x="352" y="0"></rect><rect fill="#C80000" height="100%" width="16" x="376" y="0"></rect><rect fill="#289C18" height="100%" width="24" x="392" y="0"></rect><rect fill="#101010" height="100%" width="24" x="416" y="0"></rect><rect fill="#888888" height="100%" width="144" x="440" y="0"></rect><rect fill="#101010" height="100%" width="24" x="584" y="0"></rect><rect fill="#289C18" height="100%" width="24" x="608" y="0"></rect><rect fill="#C80000" height="100%" width="16" x="632" y="0"></rect><rect fill="#E0E0E0" height="100%" width="24" x="648" y="0"></rect><rect fill="#2C2C80" height="100%" width="288" x="672" y="0"></rect><rect fill="#101010" height="100%" width="16" x="960" y="0"></rect></g></svg>